<svg width="142" height="48" viewBox="0 0 142 48" fill="none" xmlns="http://www.w3.org/2000/svg">
<g clip-path="url(#clip0_7604_12508)">
<path d="M48.6536 24C48.6536 37.2527 37.7599 48 24.3268 48C10.8937 48 0 37.2527 0 24C0 10.7473 10.8937 0 24.3268 0C37.7599 0 48.6536 10.7473 48.6536 24Z" fill="white"/>
<path d="M35.7384 22.3245C31.8727 19.7314 26.9232 20.7846 24.3191 24.6862C22.1517 27.9415 18.8763 28.3485 17.6146 28.3485C13.4739 28.3485 10.6514 25.4761 9.81033 22.508C9.81033 22.508 9.79416 22.4522 9.78607 22.4203C9.77799 22.3884 9.7699 22.3564 9.76181 22.3245C9.43023 21.0798 9.34936 20.4974 9.34936 19.1809C9.34936 12.0878 16.7331 4.1809 27.3599 4.1809C37.9867 4.1809 44.4809 12.3591 46.0903 16.907C46.0579 16.8192 46.0336 16.7474 46.0094 16.6676C42.9119 7.77133 34.3717 1.38037 24.3029 1.38037C11.6543 1.38037 1.3833 11.5054 1.3833 24.0001C1.3833 35.1703 9.54345 44.7208 20.8738 44.7208C29.8993 44.7208 35.973 39.7261 38.755 32.8405C40.2835 29.0745 39.1998 24.6463 35.7384 22.3245Z" fill="#003964"/>
<path d="M46.228 17.3377C44.8855 12.9016 38.6097 4.17285 27.3602 4.17285C16.7334 4.17285 9.34961 12.0798 9.34961 19.1729C9.34961 20.4893 9.43048 21.0798 9.76206 22.3165C9.62458 21.7739 9.55179 21.2314 9.55179 20.7048C9.55179 13.3085 17.0488 8.19413 24.7641 8.19413C35.2049 8.19413 43.6724 16.5399 43.6724 26.8404C43.6724 34.9149 38.9655 41.9042 32.1236 45.2633C40.9469 42.1197 47.2389 33.7819 47.2389 23.992C47.2389 21.6782 46.9235 19.6356 46.2361 17.3377" fill="#ED1A3B"/>
<path d="M59.8839 16.0631V13.6117H73.1335V16.0631H67.4906L73.3651 23.2289L71.3755 24.8831L66.6159 18.9603L61.9335 25.2689L59.8667 23.6146L65.7412 16.0631H59.8924H59.8839ZM78.2276 31.0889C78.2276 31.8689 78.0646 32.5889 77.7473 33.2746C77.43 33.9517 77.0012 34.5517 76.4695 35.0746C75.9378 35.5889 75.3032 36.0003 74.5657 36.3003C73.8282 36.6003 73.0478 36.7546 72.2245 36.7546C71.4012 36.7546 70.638 36.6003 69.8919 36.3003C69.1543 36.0003 68.5111 35.5889 67.9794 35.0746C67.4477 34.5603 67.019 33.9603 66.7016 33.2746C66.3843 32.5889 66.2214 31.8689 66.2214 31.0889C66.2214 30.3089 66.3843 29.5889 66.7016 28.9031C67.019 28.2174 67.4477 27.626 67.9794 27.1031C68.5111 26.5889 69.1543 26.1774 69.8919 25.8774C70.638 25.5774 71.4098 25.4231 72.2245 25.4231C73.0392 25.4231 73.8367 25.5774 74.5657 25.8774C75.2946 26.1774 75.9378 26.5889 76.4695 27.1031C77.0012 27.626 77.43 28.2174 77.7473 28.9031C78.0646 29.5803 78.2276 30.3089 78.2276 31.0889ZM75.4061 31.0631C75.4061 30.1974 75.0888 29.4603 74.4628 28.8346C73.8367 28.2174 73.0735 27.9003 72.1988 27.9003C71.324 27.9003 70.5951 28.2089 69.9776 28.8346C69.3602 29.4517 69.0429 30.1974 69.0429 31.0631C69.0429 31.9289 69.3516 32.6917 69.9776 33.3003C70.5951 33.9089 71.3412 34.2174 72.1988 34.2174C73.0563 34.2174 73.8367 33.9089 74.4628 33.3003C75.0888 32.6917 75.4061 31.9374 75.4061 31.0631ZM77.3185 25.166V20.1774H73.022V17.6917H77.3185V12.9346H80.1914V25.166H77.3185Z" fill="#58595B"/>
<path d="M83.6045 27.5232H104.821V30.0603H95.6364V36.0089H92.7635V30.0603H83.6045V27.5232ZM88.1325 16.2432H100.267V13.3203H103.115V24.4203H85.3111V13.3203H88.1325V16.2432ZM100.267 18.7289H88.1325V21.9089H100.267V18.7289Z" fill="#58595B"/>
<path d="M123.218 36.2917H108.699V33.0517L116.983 25.346C117.103 25.226 117.249 25.0888 117.403 24.9517C118.621 23.8031 120.473 22.0631 120.473 19.9546C120.473 17.846 119.333 15.2317 116.134 15.2317C113.578 15.2317 111.863 16.8688 111.537 19.5946L111.46 20.1517L108.707 19.7403L108.793 19.1574C109.728 13.3288 114.17 12.7031 116.031 12.7031C120.396 12.7031 123.209 15.6088 123.209 20.1088C123.209 22.9803 121.279 24.8831 119.736 26.4003L119.479 26.6574L111.846 33.7717H123.209V36.2917H123.218Z" fill="#58595B"/>
<path d="M140.559 29.4173H137.986V13.0287H135.55L124.899 29.0316V31.9373H135.396V36.2916H137.986V31.9373H141.004V29.4173H140.55H140.559ZM127.729 29.4173L135.404 17.6659V29.4173H127.729Z" fill="#58595B"/>
</g>
<defs>
<clipPath id="clip0_7604_12508">
<rect width="142" height="48" fill="white"/>
</clipPath>
</defs>
</svg>
