<svg width="40" height="40" viewBox="0 0 40 40" fill="none" xmlns="http://www.w3.org/2000/svg">
<g id="ico_40">
<g id="Group">
<path id="Vector" d="M8.27483 35.6297H23.9084C26.82 35.6297 29.1833 33.2695 29.1833 30.3549V28.8188C29.1833 21.5958 23.3267 15.7393 16.1037 15.7393H16.0825C8.85654 15.7362 3 21.5928 3 28.8188V30.3549C3 33.2665 5.36019 35.6297 8.27483 35.6297Z" fill="#B3B3E0"/>
<g id="Group_2">
<path id="Vector_2" d="M22.6411 17.5016L21.0414 20.7919C20.5536 21.7948 19.3144 22.1644 18.357 21.5979L16.0938 20.2587L19.2205 16.4957C19.375 16.3109 19.6234 16.2321 19.8537 16.2988C20.8384 16.5927 21.7715 16.9956 22.6441 17.5016H22.6411Z" fill="#7860F5"/>
<path id="Vector_3" d="M12.9675 16.498L16.0942 20.2609L13.831 21.6001C12.8736 22.1667 11.6344 21.794 11.1466 20.7942L9.54688 17.5039C10.4194 16.9979 11.3526 16.5949 12.3373 16.301C12.5676 16.2313 12.816 16.3132 12.9705 16.498H12.9675Z" fill="#7860F5"/>
</g>
<path id="Vector_4" d="M16.08 15.7383C14.9348 15.7383 13.8229 15.8867 12.7624 16.1624L12.7109 16.1897L16.0891 20.2557L19.4673 16.1897L19.4158 16.1624C18.3554 15.8867 17.2435 15.7383 16.0982 15.7383H16.077H16.08Z" fill="#D7D6EA"/>
<path id="Vector_5" d="M12.9844 27.4082H9.83347C9.20025 27.4082 8.63672 26.9446 8.57612 26.3144C8.50644 25.5903 9.073 24.9844 9.78197 24.9844H12.9329C13.5661 24.9844 14.1297 25.4479 14.1903 26.0781C14.26 26.8022 13.6934 27.4082 12.9844 27.4082Z" fill="white"/>
<path id="Vector_6" d="M16.089 17.2518C19.7974 17.2518 22.8029 14.2463 22.8029 10.5379V8.71396C22.8029 5.00553 19.7974 2 16.089 2C12.3805 2 9.375 5.00553 9.375 8.71396V10.5379C9.375 14.2463 12.3805 17.2518 16.089 17.2518Z" fill="#D7D6EA"/>
</g>
<g id="Group 1707483845">
<path id="Vector_7" d="M35.9026 37.9568C35.5059 37.9568 35.1122 37.8047 34.8084 37.5035L31.4561 34.6519C30.8485 34.0465 30.8485 33.0653 31.453 32.4568C32.0574 31.8482 33.037 31.8482 33.6445 32.4537L36.9969 35.3052C37.6044 35.9107 37.6044 36.8918 37 37.5004C36.6962 37.8047 36.2994 37.9568 35.9026 37.9568Z" fill="#7860F5"/>
<path id="Vector_8" d="M21.5002 28.9202C21.4718 25.8947 23.8946 23.4722 26.9217 23.5002C29.9682 23.5285 32.4711 26.0313 32.4998 29.0798C32.5282 32.1058 30.1065 34.5278 27.0798 34.4998C24.0316 34.4715 21.5289 31.9685 21.5002 28.9202Z" fill="white" stroke="#7860F5" stroke-width="3"/>
</g>
</g>
</svg>
