<svg width="40" height="40" viewBox="0 0 40 40" fill="none" xmlns="http://www.w3.org/2000/svg">
<g id="ico_40">
<g id="_&#234;&#178;&#169;&#235;&#166;&#172;_&#235;&#170;&#168;&#235;&#147;&#156;">
<path id="Vector" d="M27.3919 28.8739C27.0283 28.8739 26.6676 28.7352 26.3893 28.4605L23.5975 25.6882C23.0409 25.136 23.0409 24.2412 23.5947 23.6862C24.1485 23.1311 25.046 23.1311 25.6026 23.6833L28.3944 26.4556C28.9511 27.0078 28.9511 27.9026 28.3972 28.4577C28.1189 28.7352 27.7554 28.8739 27.3919 28.8739Z" fill="#F9D2C0"/>
<path id="Vector_2" d="M16.0081 2.00058C8.7574 1.93262 2.93243 7.82267 3.00059 15.1569C3.06875 22.4912 9.00165 28.4945 16.2523 28.5624C23.503 28.6304 29.3251 22.7403 29.257 15.4061C29.1888 8.07186 23.2559 2.06854 16.0081 2.00058ZM16.2182 24.918C10.9584 24.867 6.65291 20.5146 6.60463 15.1909C6.55635 9.87003 10.7795 5.59408 16.0393 5.64505C21.2991 5.69602 25.6047 10.0484 25.6529 15.3721C25.7012 20.693 21.478 24.9689 16.2182 24.918Z" fill="#F9D2C0"/>
<g id="&#234;&#183;&#184;&#235;&#163;&#185; 2557">
<path id="Vector_3" d="M19 11C19 12.6543 17.6608 14 16 14C14.3392 14 13 12.6608 13 11C13 9.33917 14.3457 8 16 8C17.6543 8 19 9.33917 19 11Z" fill="#EF6250"/>
<path id="Vector_4" d="M21.9911 18.2278C21.9911 16.6631 20.3356 15.4004 18.3042 15.4004H13.6868C11.6465 15.4004 10 16.67 10 18.2278V21.0004H22V18.2278H21.9911Z" fill="#EF6250"/>
</g>
<path id="Vector_5" d="M37.5424 34.7696L34.7421 37.5476C34.1343 38.1507 33.1545 38.1507 32.5467 37.5476L25.4267 30.4795C24.8161 29.8735 24.8161 28.8881 25.4267 28.2821L28.227 25.5041C28.8348 24.901 29.8146 24.901 30.4224 25.5041L37.5424 32.5722C38.153 33.1782 38.153 34.1636 37.5424 34.7696Z" fill="#EF6250"/>
</g>
</g>
</svg>
