<svg width="40" height="40" viewBox="0 0 40 40" fill="none" xmlns="http://www.w3.org/2000/svg">
<g id="ico_40">
<g id="icon">
<path id="Vector" d="M31 11.21C31 9.20435 29.3748 7.58217 27.3722 7.58217H17.5113C17.1583 7.58217 16.8235 7.43 16.5891 7.16522L14.1635 4.41696C13.9291 4.15217 13.5943 4 13.2413 4H6.62783C4.62522 4 3 5.62522 3 7.62783H3.00609V12.4H31V11.21Z" fill="#7557F2"/>
<path id="Vector_2" d="M6.63564 29.2404H27.3709C29.3765 29.2404 30.9987 27.6152 30.9987 25.6126V12.4004H3.00781V25.6126C3.00781 27.6182 4.63303 29.2404 6.63564 29.2404Z" fill="#BBB0FF"/>
</g>
<g id="Group">
<path id="Vector_3" d="M29 34C33.4183 34 37 30.4183 37 26C37 21.5817 33.4183 18 29 18C24.5817 18 21 21.5817 21 26C21 30.4183 24.5817 34 29 34Z" fill="#7557F2"/>
<path id="Vector_4" d="M32.6658 26.4153C32.2237 25.9963 31.5085 25.9963 31.0689 26.4153L30.1274 27.3076V22.0698C30.1274 21.4782 29.6229 21 28.9987 21C28.3745 21 27.87 21.4782 27.87 22.0698V27.3816L26.9285 26.4893C26.4863 26.0702 25.7711 26.0702 25.3316 26.4893C24.8895 26.9083 24.8895 27.5861 25.3316 28.0027L28.1638 30.687C28.3849 30.8965 28.6736 31 28.9623 31C29.251 31 29.5397 30.8965 29.7607 30.687L32.6684 27.9312C33.1105 27.5122 33.1105 26.8344 32.6684 26.4178L32.6658 26.4153Z" fill="white"/>
</g>
</g>
</svg>
